<?xml version="1.0" encoding="UTF-8" standalone="no"?>
<svg
   xmlns:dc="http://purl.org/dc/elements/1.1/"
   xmlns:cc="http://creativecommons.org/ns#"
   xmlns:rdf="http://www.w3.org/1999/02/22-rdf-syntax-ns#"
   xmlns:svg="http://www.w3.org/2000/svg"
   xmlns="http://www.w3.org/2000/svg"
   xmlns:xlink="http://www.w3.org/1999/xlink"
   xmlns:sodipodi="http://sodipodi.sourceforge.net/DTD/sodipodi-0.dtd"
   xmlns:inkscape="http://www.inkscape.org/namespaces/inkscape"
   width="128"
   height="128"
   version="1.1"
   id="svg143"
   sodipodi:docname="Crystal_Clear_mimetype_html.svg"
   inkscape:version="0.92.1 r15371">
  <metadata
     id="metadata147">
    <rdf:RDF>
      <cc:Work
         rdf:about="">
        <dc:format>image/svg+xml</dc:format>
        <dc:type
           rdf:resource="http://purl.org/dc/dcmitype/StillImage" />
      </cc:Work>
    </rdf:RDF>
  </metadata>
  <sodipodi:namedview
     pagecolor="#ffffff"
     bordercolor="#666666"
     borderopacity="1"
     objecttolerance="10"
     gridtolerance="10"
     guidetolerance="10"
     inkscape:pageopacity="0"
     inkscape:pageshadow="2"
     inkscape:window-width="1600"
     inkscape:window-height="837"
     id="namedview145"
     showgrid="false"
     inkscape:zoom="0.85839035"
     inkscape:cx="-5.0706629"
     inkscape:cy="49.73862"
     inkscape:window-x="-8"
     inkscape:window-y="-8"
     inkscape:window-maximized="1"
     inkscape:current-layer="svg143" />
  <defs
     id="defs91">
    <filter
       x="-.35134313"
       y="-.36891031"
       width="1.7026863"
       id="x"
       height="1.7378206">
      <feGaussianBlur
         stdDeviation="3.9028595"
         id="feGaussianBlur2" />
    </filter>
    <filter
       x="-.35134313"
       y="-.36891031"
       width="1.7026863"
       id="w"
       height="1.7378206">
      <feGaussianBlur
         stdDeviation="3.9028595"
         id="feGaussianBlur5" />
    </filter>
    <filter
       x="-.35134313"
       y="-.36891031"
       width="1.7026863"
       id="A"
       height="1.7378206">
      <feGaussianBlur
         stdDeviation="3.9028595"
         id="feGaussianBlur8" />
    </filter>
    <filter
       x="-.35134313"
       y="-.36891031"
       width="1.7026863"
       id="B"
       height="1.7378206">
      <feGaussianBlur
         stdDeviation="3.9028595"
         id="feGaussianBlur11" />
    </filter>
    <filter
       x="-.29278594"
       y="-.30742526"
       width="1.5855719"
       id="y"
       height="1.6148505">
      <feGaussianBlur
         stdDeviation="3.2523829"
         id="feGaussianBlur14" />
    </filter>
    <linearGradient
       id="f">
      <stop
         offset="0"
         stop-color="#fff"
         stop-opacity=".30000001"
         id="stop17" />
      <stop
         offset="1"
         stop-color="#fff"
         stop-opacity="0"
         id="stop19" />
    </linearGradient>
    <linearGradient
       id="e">
      <stop
         offset="0"
         stop-color="#fff"
         id="stop22" />
      <stop
         offset=".5"
         stop-color="#fff"
         stop-opacity=".49803922"
         id="stop24" />
      <stop
         offset="1"
         stop-color="#fff"
         stop-opacity="0"
         id="stop26" />
    </linearGradient>
    <linearGradient
       id="d">
      <stop
         offset="0"
         stop-color="#fff"
         id="stop29" />
      <stop
         offset="1"
         stop-color="#fff"
         stop-opacity="0"
         id="stop31" />
    </linearGradient>
    <linearGradient
       id="c">
      <stop
         offset="0"
         stop-color="#fff"
         id="stop34" />
      <stop
         offset="1"
         stop-color="#fff"
         stop-opacity="0"
         id="stop36" />
    </linearGradient>
    <linearGradient
       id="b">
      <stop
         offset="0"
         stop-color="#fff"
         id="stop39" />
      <stop
         offset="1"
         stop-color="#fff"
         stop-opacity="0"
         id="stop41" />
    </linearGradient>
    <linearGradient
       id="a">
      <stop
         offset="0"
         stop-color="#fff"
         id="stop44" />
      <stop
         offset="1"
         stop-color="#fff"
         stop-opacity="0"
         id="stop46" />
    </linearGradient>
    <linearGradient
       gradientTransform="matrix(-.138 -.1 .097 -.145 70.41 129.918)"
       y2="257.83203"
       x2="239.90234"
       y1="257.83203"
       x1="210.78125"
       gradientUnits="userSpaceOnUse"
       id="z"
       xlink:href="#a" />
    <linearGradient
       gradientTransform="matrix(-.804 -1.653 -.153 .002 282.94 447.018)"
       y2="252.88338"
       x2="242.75851"
       y1="252.88338"
       x1="213.27011"
       gradientUnits="userSpaceOnUse"
       id="v"
       xlink:href="#b" />
    <linearGradient
       gradientTransform="matrix(-.34 0 0 .186 136.537 23.33)"
       y2="252.88338"
       x2="242.87742"
       y1="252.88338"
       x1="213.15121"
       gradientUnits="userSpaceOnUse"
       id="u"
       xlink:href="#c" />
    <linearGradient
       gradientTransform="matrix(-.01 -.14 -.28 .006 166.765 125.5)"
       y2="360.66406"
       x2="365.625"
       y1="360.66406"
       x1="149.80469"
       gradientUnits="userSpaceOnUse"
       id="t"
       xlink:href="#d" />
    <linearGradient
       y2="158.15402"
       x2="398.27032"
       y1="158.15402"
       x1="84.270332"
       spreadMethod="reflect"
       gradientTransform="matrix(-.023 .117 -.25 -.015 106.412 26.503)"
       gradientUnits="userSpaceOnUse"
       id="s"
       xlink:href="#e" />
    <linearGradient
       y2="478.36218"
       x2="369"
       y1="614.86218"
       x1="369"
       gradientTransform="matrix(.18 0 0 .194 -5.323 -12.613)"
       gradientUnits="userSpaceOnUse"
       id="r"
       xlink:href="#f" />
    <filter
       id="q">
      <feGaussianBlur
         stdDeviation="1.1122527"
         id="feGaussianBlur55" />
    </filter>
    <filter
       id="C">
      <feGaussianBlur
         stdDeviation=".37075089"
         id="feGaussianBlur58" />
    </filter>
    <radialGradient
       r="379.76288"
       fy="482.36795"
       fx="1188.8058"
       cy="482.36795"
       cx="1188.8058"
       gradientTransform="matrix(-.065 -.068 .037 -.035 152.6 124.077)"
       gradientUnits="userSpaceOnUse"
       id="p"
       xlink:href="#g" />
    <linearGradient
       id="g">
      <stop
         offset="0"
         stop-color="#b6b6b6"
         stop-opacity=".50980395"
         id="stop62" />
      <stop
         offset="1"
         stop-color="#b6b6b6"
         stop-opacity="0"
         id="stop64" />
    </linearGradient>
    <linearGradient
       y2="265.03156"
       x2="1389.2557"
       y1="315.07806"
       x1="1340.1351"
       gradientTransform="matrix(.062 0 0 .062 8.685 .357)"
       gradientUnits="userSpaceOnUse"
       id="o"
       xlink:href="#h" />
    <linearGradient
       id="h">
      <stop
         offset="0"
         stop-color="#fff"
         stop-opacity=".90196079"
         id="stop68" />
      <stop
         offset="1"
         stop-color="#b0aeae"
         id="stop70" />
    </linearGradient>
    <linearGradient
       y2="1988.1707"
       x2="768.49084"
       y1="1887.8104"
       x1="767.15399"
       gradientTransform="matrix(.065 0 0 .065 10.193 .362)"
       gradientUnits="userSpaceOnUse"
       id="l"
       xlink:href="#i" />
    <linearGradient
       id="i">
      <stop
         offset="0"
         stop-color="#9c9a9a"
         id="stop74" />
      <stop
         offset="1"
         stop-color="#9c9a9a"
         stop-opacity="0"
         id="stop76" />
    </linearGradient>
    <radialGradient
       r="806.302"
       fy="1804.7415"
       fx="1607.4192"
       cy="1804.7415"
       cx="1607.4192"
       gradientTransform="matrix(0 -.057 .118 0 -104.363 215.19)"
       gradientUnits="userSpaceOnUse"
       id="m"
       xlink:href="#j" />
    <linearGradient
       id="j">
      <stop
         offset="0"
         stop-color="#d4d4d4"
         id="stop80" />
      <stop
         offset="1"
         stop-color="#fff"
         id="stop82" />
    </linearGradient>
    <linearGradient
       y2="541.89899"
       x2="838.08698"
       y1="1954.358"
       x1="838.08698"
       gradientTransform="matrix(.062 0 0 .062 8.685 .357)"
       gradientUnits="userSpaceOnUse"
       id="n"
       xlink:href="#k" />
    <linearGradient
       id="k">
      <stop
         offset="0"
         stop-color="#e8e8e8"
         id="stop86" />
      <stop
         offset="1"
         stop-color="#fff"
         id="stop88" />
    </linearGradient>
    <filter
       style="color-interpolation-filters:sRGB"
       id="filter4728">
      <feGaussianBlur
         id="feGaussianBlur4730"
         stdDeviation="1.14875" />
    </filter>
    <linearGradient
       x1="0.16531934"
       y1="73.312866"
       x2="81.186234"
       y2="75.399033"
       id="linearGradient4455"
       xlink:href="#linearGradient4449"
       gradientUnits="userSpaceOnUse" />
    <linearGradient
       id="linearGradient4449">
      <stop
         id="stop4451"
         style="stop-color:#666666;stop-opacity:1"
         offset="0" />
      <stop
         id="stop4453"
         style="stop-color:#ffffff;stop-opacity:1"
         offset="1" />
    </linearGradient>
    <linearGradient
       x1="1.8597215"
       y1="71.2267"
       x2="90.636635"
       y2="72.269775"
       id="linearGradient4447"
       xlink:href="#linearGradient4441"
       gradientUnits="userSpaceOnUse" />
    <linearGradient
       id="linearGradient4441">
      <stop
         id="stop4443"
         style="stop-color:#222222;stop-opacity:1"
         offset="0" />
      <stop
         id="stop4445"
         style="stop-color:#dbdbdb;stop-opacity:1"
         offset="1" />
    </linearGradient>
    <linearGradient
       x1="62.011005"
       y1="5.7689242"
       x2="62.011005"
       y2="107.18723"
       id="linearGradient4471"
       xlink:href="#linearGradient4465"
       gradientUnits="userSpaceOnUse" />
    <linearGradient
       id="linearGradient4465">
      <stop
         id="stop4467"
         style="stop-color:#fcfcfc;stop-opacity:1"
         offset="0" />
      <stop
         id="stop4469"
         style="stop-color:#666666;stop-opacity:1"
         offset="1" />
    </linearGradient>
    <linearGradient
       x1="62.011005"
       y1="13.008162"
       x2="62.011005"
       y2="86.722008"
       id="linearGradient4463"
       xlink:href="#linearGradient4457"
       gradientUnits="userSpaceOnUse" />
    <linearGradient
       id="linearGradient4457">
      <stop
         id="stop4459"
         style="stop-color:#2c2c2c;stop-opacity:1"
         offset="0" />
      <stop
         id="stop4461"
         style="stop-color:#ffffff;stop-opacity:1"
         offset="1" />
    </linearGradient>
    <linearGradient
       x1="62.011005"
       y1="50.365856"
       x2="61.479324"
       y2="106.89302"
       id="linearGradient4519"
       xlink:href="#linearGradient4513"
       gradientUnits="userSpaceOnUse" />
    <linearGradient
       id="linearGradient4513">
      <stop
         id="stop4515"
         style="stop-color:#ffffff;stop-opacity:1"
         offset="0" />
      <stop
         id="stop4517"
         style="stop-color:#c6c6c6;stop-opacity:1"
         offset="1" />
    </linearGradient>
    <linearGradient
       x1="58.635792"
       y1="14.532746"
       x2="62.011005"
       y2="105.83722"
       id="linearGradient4479"
       xlink:href="#linearGradient4473"
       gradientUnits="userSpaceOnUse" />
    <linearGradient
       id="linearGradient4473">
      <stop
         id="stop4475"
         style="stop-color:#ffffff;stop-opacity:1"
         offset="0" />
      <stop
         id="stop4477"
         style="stop-color:#383838;stop-opacity:1"
         offset="1" />
    </linearGradient>
    <linearGradient
       x1="62.011005"
       y1="13.87289"
       x2="62.011005"
       y2="105.83722"
       id="linearGradient4487"
       xlink:href="#linearGradient4481"
       gradientUnits="userSpaceOnUse" />
    <linearGradient
       id="linearGradient4481">
      <stop
         id="stop4483"
         style="stop-color:#ffffff;stop-opacity:1"
         offset="0" />
      <stop
         id="stop4485"
         style="stop-color:#acacac;stop-opacity:1"
         offset="1" />
    </linearGradient>
  </defs>
  <path
     d="M8.72949 122.02839c.0115 2.71118.11756 5.71646 3.34146 5.97161h94.68093c1.20485 0 4.09361-2.60074 4.04778-5.25762l-102.07017-.71399z"
     fill="url(#l)"
     fill-rule="evenodd"
     id="path93" />
  <path
     d="M10.32116 1.993075C9.30274 2.637126 8.6854 3.757997 8.6854 4.962916V121.70486c0 .93193.37022 1.82573 1.02921 2.48472.65898.65903 1.55276 1.02919 2.48472 1.02919h94.68093c1.20485 0 2.32579-.61733 2.96984-1.63575L10.32116 1.993075z"
     fill="#bbb"
     fill-rule="evenodd"
     id="path95" />
  <path
     d="M111.4858 33.599615c0-1.397937-.55529-2.73859-1.54378-3.727084L81.970698 1.901149C80.98215.912668 79.641493.357373 78.24362.357373H13.29095c-.9319 0-1.82567.37023-2.48472 1.029217-.65899.658987-1.02921 1.552757-1.02921 2.48471v116.74199c0 .9319.37022 1.82567 1.02921 2.48472.65898.65899 1.55276 1.02915 2.48472 1.02915h94.68099c.93195 0 1.82573-.37023 2.48472-1.02915.65898-.65905 1.02914-1.55282 1.02914-2.48472V33.599615z"
     fill="#9c9a9a"
     fill-rule="evenodd"
     id="path97" />
  <path
     d="M110.60733 35.702156c0-1.397937-.55529-2.738591-1.54377-3.727085-.98849-.988468-2.32915-1.543764-3.72708-1.543764H83.782482c-1.455515 0-2.635457-1.179951-2.635457-2.635468V6.506694c0-1.397925-.555358-2.738603-1.543777-3.727072-.988485-.988494-2.329148-1.543777-3.727079-1.543777H13.29095c-.69897 0-1.3693.27761-1.86354.771907-.49424.494259-.77192 1.16458-.77192 1.863548v116.74199c0 .6989.27768 1.3693.77192 1.86347.49424.49425 1.16457.77192 1.86354.77192h94.68099c.6989 0 1.36929-.27767 1.86347-.77192.49431-.49423.77192-1.16457.77192-1.86347V35.702156z"
     fill="url(#m)"
     fill-rule="evenodd"
     id="path99" />
  <path
     d="M108.85034 33.94516H12.41248v84.03261c0 .93195.37022 1.82574 1.02921 2.48471.65898.65899 1.55276 1.02922 2.48472 1.02922h89.41007c.93195 0 1.82573-.37028 2.48471-1.02922.659-.65892 1.02915-1.55276 1.02915-2.48471V33.94516z"
     fill="url(#n)"
     fill-rule="evenodd"
     id="path101" />
  <path
     d="M82.025489 3.198366v24.597473c0 .465983.185079.912867.514636 1.242374.329492.329481.776384.514559 1.242357.514559h24.597478L82.025489 3.198366z"
     fill="url(#o)"
     fill-rule="evenodd"
     id="path103" />
  <path
     d="M105.33549 30.410326H83.778741c-1.455696 0-2.635786-1.180095-2.635786-2.635802V6.482733c0-1.398111-.555435-2.738943-1.543978-3.727558-.988606-.988607-2.329457-1.543967-3.727556-1.543967H26.862202l1.090362 78.028051 82.654396 2.907631V35.681851c0-1.398112-.55538-2.738944-1.54398-3.72755-.98854-.988554-2.32938-1.543975-3.72749-1.543975z"
     fill="url(#p)"
     fill-rule="evenodd"
     id="path105" />
  <g
     transform="matrix(0.54001454,0.31177754,-0.31177754,0.54001454,45.574776,5.2777688)"
     id="layer1"
     style="display:inline">
    <path
       inkscape:connector-curvature="0"
       d="m 63.5625,10.03125 c -32.887714,0 -59.53125,22.144747 -59.53125,49.46875 0,17.524299 10.957758,32.929191 27.5,41.71875 1.325087,10.90561 14.87209,19.46875 31.375,19.46875 16.119476,0 29.406331,-8.17574 31.25,-18.71875 C 111.51695,93.324544 123.125,77.539145 123.125,59.5 123.125,32.175997 96.450214,10.03125 63.5625,10.03125 Z"
       transform="translate(10.285714,14.076472)"
       id="path4338"
       style="fill:#303030;fill-opacity:1;stroke:none;filter:url(#filter4728)" />
    <path
       inkscape:connector-curvature="0"
       d="m 121.55948,56.36274 a 59.548474,49.474484 0 1 1 -119.096948,0 59.548474,49.474484 0 1 1 119.096948,0 z"
       transform="matrix(0.52848476,0,0,0.42923925,38.629383,86.206271)"
       id="path3822"
       style="fill:url(#linearGradient4455);fill-opacity:1;stroke:#525252;stroke-width:4.40913439;stroke-linecap:round;stroke-miterlimit:4;stroke-dasharray:none;stroke-opacity:1" />
    <path
       inkscape:connector-curvature="0"
       d="m 121.55948,56.36274 a 59.548474,49.474484 0 1 1 -119.096948,0 59.548474,49.474484 0 1 1 119.096948,0 z"
       transform="matrix(0.52848476,0,0,0.42923925,38.629383,78.147079)"
       id="path4334"
       style="fill:#000000;fill-opacity:1;stroke:none" />
    <path
       inkscape:connector-curvature="0"
       d="m 121.55948,56.36274 a 59.548474,49.474484 0 1 1 -119.096948,0 59.548474,49.474484 0 1 1 119.096948,0 z"
       transform="translate(9.6141147,13.628739)"
       id="path3814"
       style="fill:url(#linearGradient4471);fill-opacity:1;stroke:#525252;stroke-width:2.70000005;stroke-linecap:round;stroke-miterlimit:4;stroke-dasharray:none;stroke-opacity:1" />
    <path
       inkscape:connector-curvature="0"
       d="m 121.55948,56.36274 a 59.548474,49.474484 0 1 1 -119.096948,0 59.548474,49.474484 0 1 1 119.096948,0 z"
       transform="matrix(0.84210526,0,0,0.85457861,19.405326,19.474489)"
       id="path3816"
       style="fill:url(#linearGradient4463);fill-opacity:1;stroke:url(#linearGradient4519);stroke-width:3.18276501;stroke-linecap:round;stroke-miterlimit:4;stroke-dasharray:none;stroke-opacity:1" />
    <path
       inkscape:connector-curvature="0"
       d="m 121.55948,56.36274 a 59.548474,49.474484 0 1 1 -119.096948,0 59.548474,49.474484 0 1 1 119.096948,0 z"
       transform="matrix(0.4232216,0,0,0.42923925,45.380723,48.148976)"
       id="path3818"
       style="fill:url(#linearGradient4479);fill-opacity:1;stroke:none" />
    <path
       inkscape:connector-curvature="0"
       d="m 121.55948,56.36274 a 59.548474,49.474484 0 1 1 -119.096948,0 59.548474,49.474484 0 1 1 119.096948,0 z"
       transform="matrix(0.24465017,0,0,0.21656956,50.745523,54.538961)"
       id="path3820"
       style="fill:url(#linearGradient4487);fill-opacity:1;stroke:none" />
  </g>
</svg>
